<svg xmlns="http://www.w3.org/2000/svg" width="377" height="377" fill="none"><g clip-path="url(#a)"><g clip-path="url(#b)"><path fill="url(#c)" d="M56.569 240.416c-31.242-31.242-31.242-81.895 0-113.137L174.796 9.051c3.168-3.168 4.752-4.752 6.579-5.346a8 8 0 0 1 4.944 0c1.827.594 3.411 2.178 6.579 5.346l38.466 38.467c3.168 3.168 4.753 4.752 5.346 6.578a8 8 0 0 1 0 4.945c-.593 1.826-2.178 3.41-5.346 6.579z"/><g clip-path="url(#d)"><path fill="#B58CD6" d="m56.569 240.416 56.568-56.569 11.314 11.314-56.569 56.569z"/></g><path fill="url(#e)" d="m67.882 251.73 127.279-127.279c31.242-31.242 81.896-31.242 113.138 0L181.019 251.73c-31.242 31.242-81.895 31.242-113.137 0"/><g clip-path="url(#f)"><path fill="#B58CD6" d="m251.73 181.019 56.569-56.569 11.313 11.314-56.568 56.569z"/></g><path fill="url(#g)" d="M144.815 328.663c-3.168-3.168-4.752-4.752-5.345-6.579a8 8 0 0 1 0-4.944c.593-1.826 2.177-3.411 5.345-6.579l174.797-174.796c31.242 31.241 31.242 81.895 0 113.137L201.384 367.13c-3.168 3.168-4.752 4.752-6.579 5.346a8 8 0 0 1-4.944 0c-1.827-.594-3.411-2.178-6.579-5.346z"/></g></g><defs><clipPath id="a"><rect width="376.181" height="376.181" fill="#fff" rx="80"/></clipPath><clipPath id="b"><path fill="#fff" d="M0 183.848 183.848 0 376.18 192.333 192.333 376.181z"/></clipPath><clipPath id="d"><path fill="#fff" d="M56.569 240.416 240.416 56.568l11.314 11.314L67.882 251.73z"/></clipPath><clipPath id="f"><path fill="#fff" d="m124.451 308.299 183.848-183.848 11.313 11.314-183.847 183.848z"/></clipPath><linearGradient id="c" x1="28.284" x2="212.132" y1="212.132" y2="28.284" gradientUnits="userSpaceOnUse"><stop stop-color="#661FA0"/><stop offset="1" stop-color="#8340BB"/></linearGradient><linearGradient id="e" x1="96.166" x2="280.014" y1="280.014" y2="96.166" gradientUnits="userSpaceOnUse"><stop stop-color="#661FA0"/><stop offset="1" stop-color="#8340BB"/></linearGradient><linearGradient id="g" x1="164.049" x2="347.897" y1="347.897" y2="164.049" gradientUnits="userSpaceOnUse"><stop stop-color="#661FA0"/><stop offset="1" stop-color="#8340BB"/></linearGradient></defs></svg>