<svg width="400" height="400" viewBox="0 0 400 400" fill="none" xmlns="http://www.w3.org/2000/svg">
<g clip-path="url(#clip0_10_2)">
<path d="M68.4781 252.326C37.2362 221.084 37.2362 170.431 68.4781 139.189L186.706 20.9606C189.875 17.7924 191.459 16.2084 193.285 15.6148C194.892 15.0928 196.623 15.0928 198.23 15.6149C200.056 16.2084 201.64 17.7924 204.808 20.9606L243.275 59.4272C246.443 62.5953 248.027 64.1794 248.621 66.006C249.143 67.6128 249.143 69.3435 248.621 70.9503C248.027 72.7769 246.443 74.361 243.275 77.5291L68.4781 252.326Z" fill="url(#paint0_linear_10_2)"/>
<g clip-path="url(#clip1_10_2)">
<rect width="80" height="16" transform="translate(68.4781 252.326) rotate(-45)" fill="#B58CD6"/>
</g>
<path d="M79.7919 263.64L207.071 136.36C238.313 105.118 288.966 105.118 320.208 136.36L192.929 263.64C161.687 294.882 111.034 294.882 79.7919 263.64Z" fill="url(#paint1_linear_10_2)"/>
<g clip-path="url(#clip2_10_2)">
<rect width="80" height="16" transform="translate(263.64 192.929) rotate(-45)" fill="#B58CD6"/>
</g>
<path d="M156.725 340.573C153.557 337.405 151.973 335.821 151.379 333.994C150.857 332.387 150.857 330.656 151.379 329.05C151.973 327.223 153.557 325.639 156.725 322.471L331.522 147.674C362.764 178.916 362.764 229.569 331.522 260.811L213.294 379.039C210.125 382.208 208.541 383.792 206.715 384.385C205.108 384.907 203.377 384.907 201.771 384.385C199.944 383.792 198.36 382.208 195.192 379.039L156.725 340.573Z" fill="url(#paint2_linear_10_2)"/>
</g>
<defs>
<linearGradient id="paint0_linear_10_2" x1="40.1939" y1="224.042" x2="224.042" y2="40.1939" gradientUnits="userSpaceOnUse">
<stop stop-color="#661FA0"/>
<stop offset="1" stop-color="#8340BB"/>
</linearGradient>
<linearGradient id="paint1_linear_10_2" x1="108.076" y1="291.924" x2="291.924" y2="108.076" gradientUnits="userSpaceOnUse">
<stop stop-color="#661FA0"/>
<stop offset="1" stop-color="#8340BB"/>
</linearGradient>
<linearGradient id="paint2_linear_10_2" x1="175.958" y1="359.806" x2="359.806" y2="175.958" gradientUnits="userSpaceOnUse">
<stop stop-color="#661FA0"/>
<stop offset="1" stop-color="#8340BB"/>
</linearGradient>
<clipPath id="clip0_10_2">
<rect width="260" height="272" fill="white" transform="translate(11.9096 195.757) rotate(-45)"/>
</clipPath>
<clipPath id="clip1_10_2">
<rect width="260" height="16" fill="white" transform="translate(68.4781 252.326) rotate(-45)"/>
</clipPath>
<clipPath id="clip2_10_2">
<rect width="260" height="16" fill="white" transform="translate(136.36 320.208) rotate(-45)"/>
</clipPath>
</defs>
</svg>
