<svg xmlns="http://www.w3.org/2000/svg" width="1101" height="416" fill="none"><g clip-path="url(#a)"><path fill="url(#b)" d="M68.478 260.326c-31.242-31.242-31.242-81.895 0-113.137L186.706 28.961c3.169-3.169 4.753-4.753 6.579-5.346a8 8 0 0 1 4.945 0c1.826.593 3.41 2.177 6.578 5.346l38.467 38.466c3.168 3.168 4.752 4.752 5.346 6.579a8 8 0 0 1 0 4.944c-.594 1.827-2.178 3.41-5.346 6.58z"/><g clip-path="url(#c)"><path fill="#B58CD6" d="m68.478 260.326 56.569-56.569 11.313 11.314-56.568 56.569z"/></g><path fill="url(#d)" d="M79.792 271.64 207.07 144.36c31.242-31.242 81.895-31.242 113.137 0L192.929 271.64c-31.242 31.241-81.895 31.241-113.137 0"/><g clip-path="url(#e)"><path fill="#B58CD6" d="m263.64 200.929 56.569-56.569 11.313 11.314-56.568 56.569z"/></g><path fill="url(#f)" d="M156.725 348.573c-3.168-3.168-4.752-4.752-5.346-6.579a8 8 0 0 1 0-4.944c.594-1.827 2.178-3.411 5.346-6.579l174.797-174.797c31.242 31.242 31.242 81.895 0 113.137L213.294 387.039c-3.168 3.169-4.753 4.753-6.579 5.346a8 8 0 0 1-4.944 0c-1.827-.593-3.411-2.177-6.579-5.346z"/></g><path fill="#F4ECFA" d="M443.38 297.272q-15.048 0-28.71-5.544-13.662-5.742-23.958-15.84l15.048-18.018a65.4 65.4 0 0 0 17.82 12.078q10.098 4.554 20.196 4.554 12.474 0 18.81-5.148 6.534-5.148 6.534-13.464 0-6.138-2.97-9.9t-8.118-6.336q-4.95-2.772-11.484-5.544l-19.998-8.514q-7.128-2.97-14.058-7.92-6.732-4.95-11.286-12.474-4.356-7.722-4.356-18.216 0-11.88 6.336-21.186t17.424-14.652q11.286-5.544 25.542-5.544 12.87 0 24.75 4.95t20.394 13.662l-13.464 16.632q-6.93-5.94-14.652-9.306-7.524-3.366-17.028-3.366-10.296 0-16.434 4.554t-6.138 12.474q0 5.742 3.168 9.504 3.366 3.762 8.514 6.336a593 593 0 0 0 11.484 4.95l19.602 8.118q8.712 3.564 15.246 8.91 6.732 5.148 10.494 12.672 3.762 7.326 3.762 18.018 0 11.88-6.336 21.78-6.138 9.9-18.018 15.84-11.682 5.94-28.116 5.94m108.906 0q-12.672 0-20.394-4.95-7.524-5.148-11.088-14.058-3.366-9.108-3.366-20.988v-52.074h-15.642v-19.404l17.226-1.188 2.772-30.096h21.582v30.096h27.918v20.592h-27.918v52.272q0 9.504 3.762 14.454 3.96 4.752 11.88 4.752 2.772 0 5.742-.792 3.168-.792 5.544-1.782l4.356 19.008q-4.356 1.386-10.098 2.772-5.544 1.386-12.276 1.386M594.5 294.5V184.61h21.186l2.178 19.602h.396q5.94-10.692 14.256-16.434 8.316-5.94 17.028-5.94 4.356 0 7.128.594 2.97.594 5.346 1.782l-4.356 22.374a53 53 0 0 0-5.544-1.188q-2.376-.594-5.94-.594-6.336 0-13.662 5.148-7.128 5.148-12.078 17.622V294.5zm127.557 2.772q-15.246 0-27.522-6.93t-19.602-19.8q-7.128-12.87-7.128-30.888 0-13.464 4.158-23.958 4.356-10.692 11.484-18.216 7.326-7.722 16.236-11.682 9.108-3.96 18.81-3.96 14.85 0 24.948 6.732 10.098 6.534 15.246 18.414 5.148 11.682 5.148 27.126 0 3.762-.396 7.128-.198 3.168-.792 5.346h-69.498q.99 9.702 5.346 16.434t11.088 10.494q6.93 3.564 15.84 3.564 6.93 0 13.068-1.98 6.138-2.178 12.276-5.94l8.91 16.236q-7.722 5.148-17.424 8.514t-20.196 3.366m-29.304-68.31h48.906q0-12.474-5.742-19.602-5.742-7.326-17.028-7.326-6.138 0-11.682 3.168-5.544 2.97-9.504 8.91-3.762 5.94-4.95 14.85m142.806 68.31q-15.246 0-27.522-6.93t-19.602-19.8q-7.128-12.87-7.128-30.888 0-13.464 4.158-23.958 4.356-10.692 11.484-18.216 7.326-7.722 16.236-11.682 9.108-3.96 18.81-3.96 14.85 0 24.948 6.732 10.098 6.534 15.246 18.414 5.148 11.682 5.148 27.126 0 3.762-.396 7.128-.198 3.168-.792 5.346h-69.498q.99 9.702 5.346 16.434t11.088 10.494q6.93 3.564 15.84 3.564 6.93 0 13.068-1.98 6.138-2.178 12.276-5.94l8.91 16.236q-7.722 5.148-17.424 8.514t-20.196 3.366m-29.304-68.31h48.906q0-12.474-5.742-19.602-5.742-7.326-17.028-7.326-6.138 0-11.682 3.168-5.544 2.97-9.504 8.91-3.762 5.94-4.95 14.85m131.396 68.31q-12.672 0-20.394-4.95-7.524-5.148-11.088-14.058-3.366-9.108-3.366-20.988v-52.074h-15.642v-19.404l17.226-1.188 2.772-30.096h21.582v30.096h27.918v20.592h-27.918v52.272q0 9.504 3.762 14.454 3.96 4.752 11.88 4.752 2.772 0 5.742-.792 3.168-.792 5.544-1.782l4.356 19.008q-4.356 1.386-10.098 2.772-5.544 1.386-12.276 1.386m69.809 0q-11.284 0-22.372-4.356t-19.206-11.088l11.88-16.632q7.326 5.742 14.652 9.108c4.884 2.244 10.096 3.366 15.646 3.366q8.91 0 13.26-3.762c2.91-2.508 4.36-5.676 4.36-9.504q0-4.554-3.57-7.524-3.36-3.168-8.91-5.544a217 217 0 0 0-11.08-4.554 105 105 0 0 1-14.062-6.732q-6.93-3.96-11.484-10.098t-4.554-15.246q0-9.504 4.752-16.83 4.95-7.524 13.86-11.682c6.072-2.904 13.198-4.356 21.388-4.356 7.65 0 14.52 1.32 20.59 3.96q9.3 3.96 15.84 9.306l-11.88 15.84c-3.83-2.772-7.72-5.016-11.68-6.732-3.96-1.848-8.06-2.772-12.28-2.772-5.54 0-9.64 1.188-12.28 3.564q-3.955 3.366-3.956 8.514 0 4.356 2.97 7.128 3.172 2.772 8.316 4.95c3.43 1.32 7.13 2.706 11.09 4.158a168 168 0 0 1 11.28 4.752c3.7 1.716 7.07 3.828 10.1 6.336 3.04 2.508 5.41 5.544 7.13 9.108 1.85 3.564 2.77 7.92 2.77 13.068q0 9.504-4.95 17.424-4.755 7.722-14.25 12.276-9.51 4.554-23.37 4.554"/><defs><linearGradient id="b" x1="40.194" x2="224.042" y1="232.042" y2="48.194" gradientUnits="userSpaceOnUse"><stop stop-color="#661FA0"/><stop offset="1" stop-color="#8340BB"/></linearGradient><linearGradient id="d" x1="108.076" x2="291.924" y1="299.924" y2="116.076" gradientUnits="userSpaceOnUse"><stop stop-color="#661FA0"/><stop offset="1" stop-color="#8340BB"/></linearGradient><linearGradient id="f" x1="175.958" x2="359.806" y1="367.806" y2="183.958" gradientUnits="userSpaceOnUse"><stop stop-color="#661FA0"/><stop offset="1" stop-color="#8340BB"/></linearGradient><clipPath id="a"><path fill="#fff" d="M11.91 203.757 195.757 19.909 388.09 212.242 204.243 396.09z"/></clipPath><clipPath id="c"><path fill="#fff" d="M68.478 260.326 252.326 76.478l11.314 11.314L79.792 271.64z"/></clipPath><clipPath id="e"><path fill="#fff" d="M136.36 328.208 320.208 144.36l11.313 11.314-183.847 183.848z"/></clipPath></defs></svg>