<svg width="1101" height="416" viewBox="0 0 1101 416" fill="none" xmlns="http://www.w3.org/2000/svg">
<g clip-path="url(#clip0_23_21)">
<path d="M68.4781 260.326C37.2362 229.084 37.2362 178.431 68.4782 147.189L186.706 28.9605C189.875 25.7924 191.459 24.2083 193.285 23.6148C194.892 23.0928 196.623 23.0928 198.23 23.6148C200.056 24.2083 201.64 25.7924 204.808 28.9605L243.275 67.4271C246.443 70.5953 248.027 72.1793 248.621 74.006C249.143 75.6127 249.143 77.3435 248.621 78.9502C248.027 80.7769 246.443 82.3609 243.275 85.5291L68.4781 260.326V260.326Z" fill="url(#paint0_linear_23_21)"/>
<g clip-path="url(#clip1_23_21)">
<rect width="80" height="16" transform="translate(68.4781 260.326) rotate(-45)" fill="#B58CD6"/>
</g>
<path d="M79.7919 271.64L207.071 144.36C238.313 113.118 288.966 113.118 320.208 144.36V144.36L192.929 271.64C161.687 302.881 111.034 302.881 79.7919 271.64V271.64Z" fill="url(#paint1_linear_23_21)"/>
<g clip-path="url(#clip2_23_21)">
<rect width="80" height="16" transform="translate(263.64 200.929) rotate(-45)" fill="#B58CD6"/>
</g>
<path d="M156.725 348.573C153.557 345.405 151.973 343.821 151.379 341.994C150.857 340.387 150.857 338.656 151.379 337.05C151.973 335.223 153.557 333.639 156.725 330.471L331.522 155.674V155.674C362.764 186.916 362.764 237.569 331.522 268.811L213.294 387.039C210.126 390.208 208.541 391.792 206.715 392.385C205.108 392.907 203.377 392.907 201.771 392.385C199.944 391.792 198.36 390.208 195.192 387.039L156.725 348.573Z" fill="url(#paint2_linear_23_21)"/>
</g>
<path d="M443.38 297.272C433.348 297.272 423.778 295.424 414.67 291.728C405.562 287.9 397.576 282.62 390.712 275.888L405.76 257.87C411.04 262.886 416.98 266.912 423.58 269.948C430.312 272.984 437.044 274.502 443.776 274.502C452.092 274.502 458.362 272.786 462.586 269.354C466.942 265.922 469.12 261.434 469.12 255.89C469.12 251.798 468.13 248.498 466.15 245.99C464.17 243.482 461.464 241.37 458.032 239.654C454.732 237.806 450.904 235.958 446.548 234.11L426.55 225.596C421.798 223.616 417.112 220.976 412.492 217.676C408.004 214.376 404.242 210.218 401.206 205.202C398.302 200.054 396.85 193.982 396.85 186.986C396.85 179.066 398.962 172.004 403.186 165.8C407.41 159.596 413.218 154.712 420.61 151.148C428.134 147.452 436.648 145.604 446.152 145.604C454.732 145.604 462.982 147.254 470.902 150.554C478.822 153.854 485.62 158.408 491.296 164.216L477.832 180.848C473.212 176.888 468.328 173.786 463.18 171.542C458.164 169.298 452.488 168.176 446.152 168.176C439.288 168.176 433.81 169.694 429.718 172.73C425.626 175.766 423.58 179.924 423.58 185.204C423.58 189.032 424.636 192.2 426.748 194.708C428.992 197.216 431.83 199.328 435.262 201.044C438.826 202.628 442.654 204.278 446.746 205.994L466.348 214.112C472.156 216.488 477.238 219.458 481.594 223.022C486.082 226.454 489.58 230.678 492.088 235.694C494.596 240.578 495.85 246.584 495.85 253.712C495.85 261.632 493.738 268.892 489.514 275.492C485.422 282.092 479.416 287.372 471.496 291.332C463.708 295.292 454.336 297.272 443.38 297.272ZM552.286 297.272C543.838 297.272 537.04 295.622 531.892 292.322C526.876 288.89 523.18 284.204 520.804 278.264C518.56 272.192 517.438 265.196 517.438 257.276V205.202H501.796V185.798L519.022 184.61L521.794 154.514H543.376V184.61H571.294V205.202H543.376V257.474C543.376 263.81 544.63 268.628 547.138 271.928C549.778 275.096 553.738 276.68 559.018 276.68C560.866 276.68 562.78 276.416 564.76 275.888C566.872 275.36 568.72 274.766 570.304 274.106L574.66 293.114C571.756 294.038 568.39 294.962 564.562 295.886C560.866 296.81 556.774 297.272 552.286 297.272ZM594.5 294.5V184.61H615.686L617.864 204.212H618.26C622.22 197.084 626.972 191.606 632.516 187.778C638.06 183.818 643.736 181.838 649.544 181.838C652.448 181.838 654.824 182.036 656.672 182.432C658.652 182.828 660.434 183.422 662.018 184.214L657.662 206.588C655.682 206.06 653.834 205.664 652.118 205.4C650.534 205.004 648.554 204.806 646.178 204.806C641.954 204.806 637.4 206.522 632.516 209.954C627.764 213.386 623.738 219.26 620.438 227.576V294.5H594.5ZM722.057 297.272C711.893 297.272 702.719 294.962 694.535 290.342C686.351 285.722 679.817 279.122 674.933 270.542C670.181 261.962 667.805 251.666 667.805 239.654C667.805 230.678 669.191 222.692 671.963 215.696C674.867 208.568 678.695 202.496 683.447 197.48C688.331 192.332 693.743 188.438 699.683 185.798C705.755 183.158 712.025 181.838 718.493 181.838C728.393 181.838 736.709 184.082 743.441 188.57C750.173 192.926 755.255 199.064 758.687 206.984C762.119 214.772 763.835 223.814 763.835 234.11C763.835 236.618 763.703 238.994 763.439 241.238C763.307 243.35 763.043 245.132 762.647 246.584H693.149C693.809 253.052 695.591 258.53 698.495 263.018C701.399 267.506 705.095 271.004 709.583 273.512C714.203 275.888 719.483 277.076 725.423 277.076C730.043 277.076 734.399 276.416 738.491 275.096C742.583 273.644 746.675 271.664 750.767 269.156L759.677 285.392C754.529 288.824 748.721 291.662 742.253 293.906C735.785 296.15 729.053 297.272 722.057 297.272ZM692.753 228.962H741.659C741.659 220.646 739.745 214.112 735.917 209.36C732.089 204.476 726.413 202.034 718.889 202.034C714.797 202.034 710.903 203.09 707.207 205.202C703.511 207.182 700.343 210.152 697.703 214.112C695.195 218.072 693.545 223.022 692.753 228.962ZM835.559 297.272C825.395 297.272 816.221 294.962 808.037 290.342C799.853 285.722 793.319 279.122 788.435 270.542C783.683 261.962 781.307 251.666 781.307 239.654C781.307 230.678 782.693 222.692 785.465 215.696C788.369 208.568 792.197 202.496 796.949 197.48C801.833 192.332 807.245 188.438 813.185 185.798C819.257 183.158 825.527 181.838 831.995 181.838C841.895 181.838 850.211 184.082 856.943 188.57C863.675 192.926 868.757 199.064 872.189 206.984C875.621 214.772 877.337 223.814 877.337 234.11C877.337 236.618 877.205 238.994 876.941 241.238C876.809 243.35 876.545 245.132 876.149 246.584H806.651C807.311 253.052 809.093 258.53 811.997 263.018C814.901 267.506 818.597 271.004 823.085 273.512C827.705 275.888 832.985 277.076 838.925 277.076C843.545 277.076 847.901 276.416 851.993 275.096C856.085 273.644 860.177 271.664 864.269 269.156L873.179 285.392C868.031 288.824 862.223 291.662 855.755 293.906C849.287 296.15 842.555 297.272 835.559 297.272ZM806.255 228.962H855.161C855.161 220.646 853.247 214.112 849.419 209.36C845.591 204.476 839.915 202.034 832.391 202.034C828.299 202.034 824.405 203.09 820.709 205.202C817.013 207.182 813.845 210.152 811.205 214.112C808.697 218.072 807.047 223.022 806.255 228.962ZM937.651 297.272C929.203 297.272 922.405 295.622 917.257 292.322C912.241 288.89 908.545 284.204 906.169 278.264C903.925 272.192 902.803 265.196 902.803 257.276V205.202H887.161V185.798L904.387 184.61L907.159 154.514H928.741V184.61H956.659V205.202H928.741V257.474C928.741 263.81 929.995 268.628 932.503 271.928C935.143 275.096 939.103 276.68 944.383 276.68C946.231 276.68 948.145 276.416 950.125 275.888C952.237 275.36 954.085 274.766 955.669 274.106L960.025 293.114C957.121 294.038 953.755 294.962 949.927 295.886C946.231 296.81 942.139 297.272 937.651 297.272ZM1007.46 297.272C999.938 297.272 992.48 295.82 985.088 292.916C977.696 290.012 971.294 286.316 965.882 281.828L977.762 265.196C982.646 269.024 987.53 272.06 992.414 274.304C997.298 276.548 1002.51 277.67 1008.06 277.67C1014 277.67 1018.42 276.416 1021.32 273.908C1024.23 271.4 1025.68 268.232 1025.68 264.404C1025.68 261.368 1024.49 258.86 1022.11 256.88C1019.87 254.768 1016.9 252.92 1013.2 251.336C1009.64 249.752 1005.94 248.234 1002.12 246.782C997.364 244.934 992.678 242.69 988.058 240.05C983.438 237.41 979.61 234.044 976.574 229.952C973.538 225.86 972.02 220.778 972.02 214.706C972.02 208.37 973.604 202.76 976.772 197.876C980.072 192.86 984.692 188.966 990.632 186.194C996.704 183.29 1003.83 181.838 1012.02 181.838C1019.67 181.838 1026.54 183.158 1032.61 185.798C1038.81 188.438 1044.09 191.54 1048.45 195.104L1036.57 210.944C1032.74 208.172 1028.85 205.928 1024.89 204.212C1020.93 202.364 1016.83 201.44 1012.61 201.44C1007.07 201.44 1002.97 202.628 1000.33 205.004C997.694 207.248 996.374 210.086 996.374 213.518C996.374 216.422 997.364 218.798 999.344 220.646C1001.46 222.494 1004.23 224.144 1007.66 225.596C1011.09 226.916 1014.79 228.302 1018.75 229.754C1022.58 231.206 1026.34 232.79 1030.03 234.506C1033.73 236.222 1037.1 238.334 1040.13 240.842C1043.17 243.35 1045.54 246.386 1047.26 249.95C1049.11 253.514 1050.03 257.87 1050.03 263.018C1050.03 269.354 1048.38 275.162 1045.08 280.442C1041.91 285.59 1037.16 289.682 1030.83 292.718C1024.49 295.754 1016.7 297.272 1007.46 297.272Z" fill="#F4ECFA"/>
<defs>
<linearGradient id="paint0_linear_23_21" x1="40.1939" y1="232.042" x2="224.042" y2="48.1938" gradientUnits="userSpaceOnUse">
<stop stop-color="#661FA0"/>
<stop offset="1" stop-color="#8340BB"/>
</linearGradient>
<linearGradient id="paint1_linear_23_21" x1="108.076" y1="299.924" x2="291.924" y2="116.076" gradientUnits="userSpaceOnUse">
<stop stop-color="#661FA0"/>
<stop offset="1" stop-color="#8340BB"/>
</linearGradient>
<linearGradient id="paint2_linear_23_21" x1="175.958" y1="367.806" x2="359.806" y2="183.958" gradientUnits="userSpaceOnUse">
<stop stop-color="#661FA0"/>
<stop offset="1" stop-color="#8340BB"/>
</linearGradient>
<clipPath id="clip0_23_21">
<rect width="260" height="272" fill="white" transform="translate(11.9096 203.757) rotate(-45)"/>
</clipPath>
<clipPath id="clip1_23_21">
<rect width="260" height="16" fill="white" transform="translate(68.4781 260.326) rotate(-45)"/>
</clipPath>
<clipPath id="clip2_23_21">
<rect width="260" height="16" fill="white" transform="translate(136.36 328.208) rotate(-45)"/>
</clipPath>
</defs>
</svg>
