<svg xmlns="http://www.w3.org/2000/svg" width="400" height="400" fill="none"><g clip-path="url(#a)"><path fill="url(#b)" d="M68.478 252.326c-31.242-31.242-31.242-81.895 0-113.137L186.706 20.961c3.169-3.169 4.753-4.753 6.579-5.346a8 8 0 0 1 4.945 0c1.826.593 3.41 2.177 6.578 5.346l38.467 38.466c3.168 3.168 4.752 4.752 5.346 6.579a8 8 0 0 1 0 4.944c-.594 1.827-2.178 3.411-5.346 6.58z"/><g clip-path="url(#c)"><path fill="#B58CD6" d="m68.478 252.326 56.569-56.569 11.313 11.314-56.568 56.569z"/></g><path fill="url(#d)" d="M79.792 263.64 207.07 136.36c31.242-31.242 81.895-31.242 113.137 0L192.929 263.64c-31.242 31.242-81.895 31.242-113.137 0"/><g clip-path="url(#e)"><path fill="#B58CD6" d="m263.64 192.929 56.569-56.569 11.313 11.314-56.568 56.569z"/></g><path fill="url(#f)" d="M156.725 340.573c-3.168-3.168-4.752-4.752-5.346-6.579a8 8 0 0 1 0-4.944c.594-1.827 2.178-3.411 5.346-6.579l174.797-174.797c31.242 31.242 31.242 81.895 0 113.137L213.294 379.039c-3.169 3.169-4.753 4.753-6.579 5.346a8 8 0 0 1-4.944 0c-1.827-.593-3.411-2.177-6.579-5.346z"/></g><defs><linearGradient id="b" x1="40.194" x2="224.042" y1="224.042" y2="40.194" gradientUnits="userSpaceOnUse"><stop stop-color="#661FA0"/><stop offset="1" stop-color="#8340BB"/></linearGradient><linearGradient id="d" x1="108.076" x2="291.924" y1="291.924" y2="108.076" gradientUnits="userSpaceOnUse"><stop stop-color="#661FA0"/><stop offset="1" stop-color="#8340BB"/></linearGradient><linearGradient id="f" x1="175.958" x2="359.806" y1="359.806" y2="175.958" gradientUnits="userSpaceOnUse"><stop stop-color="#661FA0"/><stop offset="1" stop-color="#8340BB"/></linearGradient><clipPath id="a"><path fill="#fff" d="M11.91 195.757 195.757 11.909 388.09 204.242 204.243 388.09z"/></clipPath><clipPath id="c"><path fill="#fff" d="M68.478 252.326 252.326 68.478l11.314 11.314L79.792 263.64z"/></clipPath><clipPath id="e"><path fill="#fff" d="M136.36 320.208 320.208 136.36l11.313 11.314-183.847 183.848z"/></clipPath></defs></svg>